<svg width="169" height="128" viewBox="0 0 169 128" fill="none" xmlns="http://www.w3.org/2000/svg">
<path d="M83.7514 25.1984C84.1426 25.3255 84.5637 25.3255 84.9557 25.1984L122.165 13.1088C124.022 12.5054 123.93 9.85191 122.036 9.37744L84.8264 0.0583812C84.5158 -0.0194608 84.1906 -0.0194602 83.8799 0.0583819L46.6706 9.37744C44.7763 9.85191 44.6847 12.5054 46.5419 13.1088L83.7514 25.1984Z" fill="white"/>
<path d="M84.4588 53.2502C96.0049 53.2502 105.365 44.1516 105.365 32.9278C105.365 21.7041 96.0049 12.6055 84.4588 12.6055C72.9127 12.6055 63.5527 21.7041 63.5527 32.9278C63.5527 44.1516 72.9127 53.2502 84.4588 53.2502Z" fill="white"/>
<path fill-rule="evenodd" clip-rule="evenodd" d="M131.724 56.6272C133.842 61.5525 131.45 67.2136 126.383 69.2715L88.7032 84.575C83.6367 86.6334 77.8128 84.3086 75.6961 79.3835C73.5787 74.4578 75.9706 68.7969 81.0371 66.7391L118.717 51.4352C123.784 49.3773 129.608 51.7018 131.724 56.6272Z" fill="white"/>
<path fill-rule="evenodd" clip-rule="evenodd" d="M51.4851 19.9199C52.8264 19.9199 53.9137 20.9582 53.9137 22.239V38.2921C53.9137 39.573 52.8264 40.6113 51.4851 40.6113C50.144 40.6113 49.0566 39.573 49.0566 38.2921V22.239C49.0566 20.9582 50.144 19.9199 51.4851 19.9199Z" fill="white"/>
<path opacity="0.8" fill-rule="evenodd" clip-rule="evenodd" d="M37.1882 56.6272C35.0712 61.5525 37.4625 67.2136 42.5293 69.2715L80.2093 84.575C85.2759 86.6334 91.0998 84.3086 93.2165 79.3835C95.3338 74.4578 92.9427 68.7969 87.8755 66.7391L50.1956 51.4352C45.1288 49.3773 39.3052 51.7018 37.1882 56.6272Z" fill="white"/>
<path d="M3.63477 109.336H11.8276C12.5781 109.336 13.2591 109.488 13.8706 109.794C14.4822 110.085 14.9616 110.501 15.3091 111.042C15.6565 111.57 15.8303 112.18 15.8303 112.874C15.8303 113.665 15.6079 114.352 15.1632 114.934C14.7323 115.503 14.1764 115.899 13.4954 116.121V116.204C14.3015 116.357 14.9547 116.752 15.455 117.39C15.9692 118.015 16.2264 118.757 16.2264 119.617C16.2264 120.908 15.8094 121.9 14.9755 122.594C14.1556 123.273 13.1063 123.613 11.8276 123.613H3.63477V109.336ZM10.9729 115.038C11.5288 115.038 11.9597 114.9 12.2654 114.622C12.5712 114.331 12.7241 113.963 12.7241 113.519C12.7241 112.992 12.5781 112.589 12.2863 112.312C12.0083 112.034 11.6192 111.896 11.1188 111.896H6.67843V115.038H10.9729ZM11.3273 121.053C11.8554 121.053 12.2863 120.901 12.6198 120.596C12.9534 120.29 13.1202 119.853 13.1202 119.284C13.1202 118.771 12.9534 118.355 12.6198 118.036C12.2863 117.716 11.7998 117.557 11.1605 117.557H6.67843V121.053H11.3273ZM25.0797 123.863C22.8699 123.863 21.1604 123.26 19.9513 122.052C18.7561 120.845 18.1585 118.986 18.1585 116.475C18.1585 114.019 18.7978 112.173 20.0764 110.938C21.355 109.703 23.1618 109.086 25.4966 109.086C26.7335 109.086 27.8593 109.28 28.8738 109.669C29.9023 110.043 30.7153 110.619 31.3129 111.396C31.9245 112.159 32.2302 113.096 32.2302 114.206H29.1032C29.1032 113.429 28.7557 112.811 28.0608 112.354C27.3798 111.882 26.5598 111.646 25.6009 111.646C24.1416 111.646 23.0506 112.034 22.3279 112.811C21.6191 113.588 21.2647 114.705 21.2647 116.162V116.787C21.2647 118.313 21.5913 119.451 22.2445 120.2C22.9116 120.935 23.9261 121.303 25.2882 121.303C26.4139 121.303 27.3451 121.04 28.0817 120.512C28.8182 119.971 29.1935 119.243 29.2074 118.327H24.8712V115.85H32.2302V123.613H30.1455L29.8745 122.032C29.2074 122.67 28.5055 123.135 27.7689 123.426C27.0324 123.717 26.1359 123.863 25.0797 123.863ZM41.0135 123.863C39.0817 123.863 37.5807 123.391 36.5105 122.448C35.4404 121.504 34.9053 120.124 34.9053 118.306V109.336H37.9281V118.16C37.9281 119.187 38.1922 119.971 38.7203 120.512C39.2623 121.04 40.0267 121.303 41.0135 121.303C42.0002 121.303 42.7646 121.04 43.3067 120.512C43.8626 119.971 44.1405 119.187 44.1405 118.16V109.336H47.1634V118.306C47.1634 120.124 46.6213 121.504 45.5373 122.448C44.4671 123.391 42.9592 123.863 41.0135 123.863ZM61.2351 123.863C60.1372 123.863 59.1296 123.697 58.2123 123.364C57.3089 123.017 56.5862 122.51 56.0442 121.844C55.5022 121.178 55.2312 120.374 55.2312 119.43L55.252 118.972H58.3165L58.2957 119.305C58.2957 119.916 58.5667 120.401 59.1087 120.762C59.6507 121.123 60.4082 121.303 61.381 121.303C62.4095 121.303 63.153 121.171 63.6117 120.908C64.0703 120.63 64.2996 120.263 64.2996 119.805C64.2996 119.402 64.1468 119.069 63.841 118.806C63.5491 118.528 63.1739 118.313 62.7153 118.16C62.2705 117.994 61.6521 117.8 60.8599 117.578C59.7341 117.259 58.8238 116.953 58.1289 116.662C57.434 116.37 56.8364 115.94 56.3361 115.371C55.8357 114.789 55.5856 114.026 55.5856 113.082C55.5856 111.778 56.1137 110.786 57.1699 110.106C58.2262 109.426 59.6299 109.086 61.381 109.086C63.0349 109.086 64.383 109.44 65.4254 110.147C66.4816 110.841 67.0097 111.889 67.0097 113.29V113.54H64.0078V113.353C64.0078 112.825 63.7646 112.409 63.2781 112.104C62.8056 111.799 62.1593 111.646 61.3394 111.646C60.4638 111.646 59.7897 111.764 59.3172 112C58.8586 112.236 58.6292 112.562 58.6292 112.978C58.6292 113.297 58.7682 113.575 59.0462 113.81C59.3241 114.032 59.6716 114.22 60.0885 114.372C60.5055 114.511 61.0961 114.685 61.8605 114.893C63.0002 115.198 63.9313 115.503 64.654 115.809C65.3906 116.1 66.023 116.537 66.5511 117.12C67.0792 117.703 67.3433 118.466 67.3433 119.409C67.3433 120.935 66.7943 122.059 65.6964 122.781C64.6123 123.502 63.1252 123.863 61.2351 123.863ZM73.1176 111.937H68.6982V109.336H80.56V111.937H76.1404V123.613H73.1176V111.937ZM88.5096 123.863C86.5778 123.863 85.0768 123.391 84.0067 122.448C82.9365 121.504 82.4015 120.124 82.4015 118.306V109.336H85.4243V118.16C85.4243 119.187 85.6883 119.971 86.2165 120.512C86.7585 121.04 87.5229 121.303 88.5096 121.303C89.4964 121.303 90.2608 121.04 90.8028 120.512C91.3587 119.971 91.6367 119.187 91.6367 118.16V109.336H94.6595V118.306C94.6595 120.124 94.1175 121.504 93.0334 122.448C91.9633 123.391 90.4554 123.863 88.5096 123.863ZM97.4468 109.336H103.367C105.549 109.336 107.231 109.932 108.412 111.126C109.608 112.305 110.205 114.088 110.205 116.475C110.205 118.861 109.608 120.651 108.412 121.844C107.231 123.024 105.549 123.613 103.367 123.613H97.4468V109.336ZM103.367 121.053C104.59 121.053 105.515 120.686 106.14 119.95C106.779 119.201 107.099 118.147 107.099 116.787V116.162C107.099 114.803 106.779 113.755 106.14 113.02C105.515 112.27 104.59 111.896 103.367 111.896H100.47V121.053H103.367ZM112.491 109.336H123.728V111.896H115.514V115.038H122.811V117.598H115.514V121.053H123.853V123.613H112.491V109.336ZM126.396 109.336H129.336L134.839 117.099C135.006 117.335 135.284 117.8 135.673 118.493L135.778 118.431L135.715 117.224V109.336H138.654V123.613H135.715L130.191 115.788C129.926 115.413 129.655 114.955 129.377 114.414L129.273 114.477C129.315 115.073 129.336 115.489 129.336 115.725V123.613H126.396V109.336ZM144.902 111.937H140.482V109.336H152.344V111.937H147.924V123.613H144.902V111.937ZM159.668 123.863C158.57 123.863 157.563 123.697 156.645 123.364C155.742 123.017 155.019 122.51 154.477 121.844C153.935 121.178 153.664 120.374 153.664 119.43L153.685 118.972H156.75L156.729 119.305C156.729 119.916 157 120.401 157.542 120.762C158.084 121.123 158.841 121.303 159.814 121.303C160.843 121.303 161.586 121.171 162.045 120.908C162.503 120.63 162.733 120.263 162.733 119.805C162.733 119.402 162.58 119.069 162.274 118.806C161.982 118.528 161.607 118.313 161.148 118.16C160.704 117.994 160.085 117.8 159.293 117.578C158.167 117.259 157.257 116.953 156.562 116.662C155.867 116.37 155.269 115.94 154.769 115.371C154.269 114.789 154.019 114.026 154.019 113.082C154.019 111.778 154.547 110.786 155.603 110.106C156.659 109.426 158.063 109.086 159.814 109.086C161.468 109.086 162.816 109.44 163.858 110.147C164.915 110.841 165.443 111.889 165.443 113.29V113.54H162.441V113.353C162.441 112.825 162.198 112.409 161.711 112.104C161.239 111.799 160.592 111.646 159.772 111.646C158.897 111.646 158.223 111.764 157.75 112C157.292 112.236 157.062 112.562 157.062 112.978C157.062 113.297 157.201 113.575 157.479 113.81C157.757 114.032 158.105 114.22 158.522 114.372C158.939 114.511 159.529 114.685 160.294 114.893C161.433 115.198 162.364 115.503 163.087 115.809C163.824 116.1 164.456 116.537 164.984 117.12C165.512 117.703 165.776 118.466 165.776 119.409C165.776 120.935 165.227 122.059 164.129 122.781C163.045 123.502 161.558 123.863 159.668 123.863Z" fill="white"/>
</svg>
