<svg width="302" height="89" viewBox="0 0 302 89" fill="none" xmlns="http://www.w3.org/2000/svg">
<g clip-path="url(#clip0)">
<path d="M51.3344 24.6984C51.7256 24.8255 52.1467 24.8255 52.5387 24.6984L89.7478 12.6088C91.6046 12.0054 91.5128 9.35191 89.6185 8.87744L52.4094 -0.441619C52.0988 -0.519461 51.7736 -0.51946 51.4629 -0.441618L14.2536 8.87744C12.3593 9.35191 12.2677 12.0054 14.1249 12.6088L51.3344 24.6984Z" fill="#F6921E"/>
<path d="M52.0408 52.7502C63.5869 52.7502 72.9469 43.6516 72.9469 32.4278C72.9469 21.2041 63.5869 12.1055 52.0408 12.1055C40.4947 12.1055 31.1348 21.2041 31.1348 32.4278C31.1348 43.6516 40.4947 52.7502 52.0408 52.7502Z" fill="#F6921E"/>
<path fill-rule="evenodd" clip-rule="evenodd" d="M99.3075 56.1272C101.425 61.0525 99.033 66.7136 93.9665 68.7715L56.2862 84.075C51.2197 86.1334 45.3958 83.8086 43.2791 78.8835C41.1618 73.9578 43.5536 68.2969 48.6201 66.2391L86.3004 50.9352C91.3669 48.8773 97.1908 51.2018 99.3075 56.1272Z" fill="#F6921E"/>
<path fill-rule="evenodd" clip-rule="evenodd" d="M19.0672 19.4199C20.4084 19.4199 21.4957 20.4582 21.4957 21.739V37.7921C21.4957 39.073 20.4084 40.1113 19.0672 40.1113C17.726 40.1113 16.6387 39.073 16.6387 37.7921V21.739C16.6387 20.4582 17.726 19.4199 19.0672 19.4199Z" fill="#F6921E"/>
<path opacity="0.8" fill-rule="evenodd" clip-rule="evenodd" d="M4.77119 56.1272C2.65417 61.0525 5.04546 66.7136 10.1123 68.7715L47.7923 84.075C52.8589 86.1334 58.6828 83.8086 60.7995 78.8835C62.9169 73.9578 60.5257 68.2969 55.4585 66.2391L17.7786 50.9352C12.7118 48.8773 6.8882 51.2018 4.77119 56.1272Z" fill="#F6921E" fill-opacity="0.9"/>
<path d="M138.599 22.7819H148.011C148.873 22.7819 149.656 22.9542 150.358 23.2988C151.061 23.6277 151.612 24.0976 152.011 24.7085C152.41 25.3036 152.61 25.9928 152.61 26.776C152.61 27.6688 152.354 28.4441 151.843 29.1019C151.348 29.7441 150.71 30.1905 149.927 30.4411V30.5351C150.853 30.7073 151.604 31.1537 152.179 31.8742C152.769 32.5791 153.065 33.4171 153.065 34.3881C153.065 35.8448 152.586 36.9647 151.628 37.7478C150.686 38.5153 149.48 38.8991 148.011 38.8991H138.599V22.7819ZM147.029 29.2194C147.668 29.2194 148.163 29.0627 148.514 28.7495C148.866 28.4206 149.041 28.0055 149.041 27.5043C149.041 26.9091 148.873 26.4549 148.538 26.1416C148.219 25.8284 147.772 25.6717 147.197 25.6717H142.095V29.2194H147.029ZM147.436 36.0092C148.043 36.0092 148.538 35.837 148.921 35.4924C149.304 35.1478 149.496 34.6544 149.496 34.0122C149.496 33.4327 149.304 32.9628 148.921 32.6026C148.538 32.2423 147.979 32.0622 147.245 32.0622H142.095V36.0092H147.436ZM163.236 39.181C160.697 39.181 158.733 38.4997 157.344 37.137C155.971 35.7743 155.284 33.6755 155.284 30.8405C155.284 28.0682 156.019 25.985 157.488 24.591C158.957 23.197 161.032 22.5 163.715 22.5C165.136 22.5 166.429 22.7193 167.595 23.1578C168.777 23.5807 169.711 24.2308 170.397 25.1079C171.1 25.9694 171.451 27.0266 171.451 28.2796H167.858C167.858 27.4025 167.459 26.7055 166.661 26.1886C165.879 25.6561 164.936 25.3898 163.834 25.3898C162.158 25.3898 160.905 25.8284 160.074 26.7055C159.26 27.5826 158.853 28.8435 158.853 30.4881V31.1929C158.853 32.9158 159.228 34.2002 159.978 35.046C160.745 35.8761 161.911 36.2912 163.475 36.2912C164.768 36.2912 165.838 35.9936 166.685 35.3984C167.531 34.7875 167.962 33.9652 167.978 32.9315H162.996V30.1357H171.451V38.8991H169.056L168.744 37.1135C167.978 37.834 167.172 38.3587 166.325 38.6876C165.479 39.0165 164.449 39.181 163.236 39.181ZM181.541 39.181C179.322 39.181 177.597 38.6484 176.368 37.5834C175.139 36.5183 174.524 34.9598 174.524 32.908V22.7819H177.997V32.7435C177.997 33.9026 178.3 34.7875 178.907 35.3984C179.53 35.9936 180.408 36.2912 181.541 36.2912C182.675 36.2912 183.553 35.9936 184.176 35.3984C184.815 34.7875 185.134 33.9026 185.134 32.7435V22.7819H188.607V32.908C188.607 34.9598 187.984 36.5183 186.739 37.5834C185.509 38.6484 183.777 39.181 181.541 39.181ZM144.898 66.5C143.636 66.5 142.479 66.312 141.425 65.9361C140.387 65.5444 139.557 64.9729 138.934 64.221C138.311 63.4692 138 62.5608 138 61.4957L138.024 60.9788H141.545L141.521 61.3547C141.521 62.0439 141.832 62.5921 142.455 62.9993C143.077 63.4066 143.947 63.6102 145.065 63.6102C146.247 63.6102 147.101 63.4614 147.628 63.1638C148.155 62.8506 148.418 62.4355 148.418 61.9186C148.418 61.4644 148.243 61.0885 147.891 60.7909C147.556 60.4776 147.125 60.2348 146.598 60.0625C146.087 59.8746 145.377 59.6553 144.467 59.4047C143.173 59.0445 142.127 58.6999 141.329 58.371C140.531 58.042 139.844 57.5565 139.269 56.9143C138.695 56.2565 138.407 55.395 138.407 54.3299C138.407 52.8576 139.014 51.7377 140.227 50.9702C141.441 50.2027 143.053 49.819 145.065 49.819C146.965 49.819 148.514 50.2184 149.712 51.0172C150.925 51.8003 151.532 52.9829 151.532 54.5649V54.8468H148.083V54.6354C148.083 54.0402 147.803 53.5703 147.245 53.2257C146.702 52.8811 145.959 52.7088 145.017 52.7088C144.011 52.7088 143.237 52.842 142.694 53.1082C142.167 53.3745 141.904 53.7426 141.904 54.2125C141.904 54.5727 142.064 54.886 142.383 55.1522C142.702 55.4029 143.101 55.6143 143.58 55.7866C144.059 55.9432 144.738 56.139 145.616 56.3739C146.926 56.7185 147.995 57.0631 148.825 57.4077C149.672 57.7366 150.398 58.23 151.005 58.8878C151.611 59.5457 151.915 60.4072 151.915 61.4722C151.915 63.1951 151.285 64.4638 150.023 65.2783C148.778 66.0929 147.069 66.5 144.898 66.5ZM158.549 53.0377H153.472V50.1009H167.099V53.0377H162.022V66.2181H158.549V53.0377ZM176.232 66.5C174.013 66.5 172.288 65.9673 171.059 64.9024C169.829 63.8373 169.215 62.2788 169.215 60.227V50.1009H172.688V60.0625C172.688 61.2216 172.991 62.1066 173.598 62.7174C174.22 63.3126 175.098 63.6102 176.232 63.6102C177.366 63.6102 178.244 63.3126 178.867 62.7174C179.505 62.1066 179.825 61.2216 179.825 60.0625V50.1009H183.298V60.227C183.298 62.2788 182.675 63.8373 181.429 64.9024C180.2 65.9673 178.467 66.5 176.232 66.5ZM186.499 50.1009H193.301C195.808 50.1009 197.74 50.7745 199.097 52.1215C200.47 53.4528 201.157 55.4655 201.157 58.1595C201.157 60.8535 200.47 62.8741 199.097 64.221C197.74 65.5526 195.808 66.2181 193.301 66.2181H186.499V50.1009ZM193.301 63.3283C194.706 63.3283 195.768 62.9132 196.486 62.0831C197.221 61.2373 197.588 60.0469 197.588 58.5119V57.8071C197.588 56.2721 197.221 55.0896 196.486 54.2594C195.768 53.4136 194.706 52.9907 193.301 52.9907H189.972V63.3283H193.301ZM203.783 50.1009H216.692V52.9907H207.256V56.5384H215.639V59.4282H207.256V63.3283H216.836V66.2181H203.783V50.1009ZM219.758 50.1009H223.135L229.458 58.8643C229.65 59.1306 229.969 59.6553 230.416 60.4385L230.536 60.368L230.464 59.0053V50.1009H233.841V66.2181H230.464L224.117 57.3842C223.813 56.9613 223.502 56.4444 223.183 55.8336L223.063 55.904C223.111 56.5776 223.135 57.0475 223.135 57.3137V66.2181H219.758V50.1009ZM241.018 53.0377H235.941V50.1009H249.568V53.0377H244.491V66.2181H241.018V53.0377ZM257.983 66.5C256.722 66.5 255.564 66.312 254.51 65.9361C253.472 65.5444 252.642 64.9729 252.019 64.221C251.396 63.4692 251.085 62.5608 251.085 61.4957L251.109 60.9788H254.63L254.606 61.3547C254.606 62.0439 254.917 62.5921 255.54 62.9993C256.162 63.4066 257.033 63.6102 258.15 63.6102C259.332 63.6102 260.186 63.4614 260.713 63.1638C261.24 62.8506 261.503 62.4355 261.503 61.9186C261.503 61.4644 261.328 61.0885 260.976 60.7909C260.641 60.4776 260.21 60.2348 259.683 60.0625C259.172 59.8746 258.462 59.6553 257.551 59.4047C256.258 59.0445 255.213 58.6999 254.414 58.371C253.616 58.042 252.929 57.5565 252.354 56.9143C251.779 56.2565 251.492 55.395 251.492 54.3299C251.492 52.8576 252.099 51.7377 253.312 50.9702C254.526 50.2027 256.138 49.819 258.15 49.819C260.051 49.819 261.599 50.2184 262.797 51.0172C264.01 51.8003 264.617 52.9829 264.617 54.5649V54.8468H261.168V54.6354C261.168 54.0402 260.889 53.5703 260.33 53.2257C259.787 52.8811 259.045 52.7088 258.102 52.7088C257.096 52.7088 256.322 52.842 255.779 53.1082C255.252 53.3745 254.989 53.7426 254.989 54.2125C254.989 54.5727 255.149 54.886 255.468 55.1522C255.788 55.4029 256.186 55.6143 256.665 55.7866C257.144 55.9432 257.823 56.139 258.701 56.3739C260.011 56.7185 261.081 57.0631 261.91 57.4077C262.757 57.7366 263.483 58.23 264.09 58.8878C264.697 59.5457 265 60.4072 265 61.4722C265 63.1951 264.37 64.4638 263.108 65.2783C261.863 66.0929 260.154 66.5 257.983 66.5Z" fill="#535353"/>
<path d="M117.719 13.5V76.0027" stroke="#363636"/>
</g>
<defs>
<clipPath id="clip0">
<rect width="302" height="89" fill="white"/>
</clipPath>
</defs>
</svg>
